<?xml version="1.0" standalone="no"?><!DOCTYPE svg PUBLIC "-//W3C//DTD SVG 1.1//EN" "http://www.w3.org/Graphics/SVG/1.1/DTD/svg11.dtd"><svg t="1718269982704" class="icon" viewBox="0 0 1289 1024" version="1.1" xmlns="http://www.w3.org/2000/svg" p-id="21276" xmlns:xlink="http://www.w3.org/1999/xlink" width="251.7578125" height="200"><path d="M1175.73 0.215H113.762A113.905 113.905 0 0 0 0 113.977v796.046a113.905 113.905 0 0 0 113.762 113.834H1175.73a113.905 113.905 0 0 0 113.762-113.834V113.762A113.905 113.905 0 0 0 1175.73 0z m-19.987 75.793l-510.925 442.87L133.82 76.007z m19.987 872.342H113.762a37.897 37.897 0 0 1-34.458-22.495L440.863 636.58l-47.425-59.245L75.865 831.221V125.94l568.881 493.015 568.881-493.016v705.28l-317.645-254.1-47.425 59.244 361.56 289.276a37.897 37.897 0 0 1-34.458 22.495z" fill="#0080FF" p-id="21277"></path></svg>